<svg width="172" height="51" viewBox="0 0 172 51" fill="none" xmlns="http://www.w3.org/2000/svg">
<path d="M37.5386 35.6536C21.5598 35.6536 8.56006 22.4486 8.56006 6.21744C8.56006 2.80614 11.2954 0.0275879 14.6537 0.0275879C18.0119 0.0275879 20.7473 2.80614 20.7473 6.21744C20.7473 15.626 28.2763 23.2464 37.5115 23.2464C46.7467 23.2464 54.2757 15.5985 54.2757 6.21744C54.2757 2.80614 57.011 0.0275879 60.3693 0.0275879C63.7275 0.0275879 66.4629 2.80614 66.4629 6.21744C66.4629 22.4486 53.4632 35.6536 37.4844 35.6536H37.5386Z" fill="#FF8560"/>
<path d="M23.4014 50.014C16.3869 50.014 9.39961 48.2534 3.25183 44.9521C0.272735 43.3565 -0.864739 39.5876 0.706058 36.5614C2.27685 33.5353 5.9601 32.3798 8.96628 33.9754C13.3808 36.3413 18.364 37.6068 23.4014 37.6068C40.4364 37.6068 54.3298 23.5214 54.3298 6.18985C54.3298 2.77856 57.0652 0 60.4234 0C63.7817 0 66.517 2.77856 66.517 6.18985C66.517 30.344 47.18 49.9865 23.4014 49.9865V50.014Z" fill="#33C1ED"/>
<path d="M14.6808 12.4073C18.0462 12.4073 20.7744 9.63601 20.7744 6.21744C20.7744 2.79888 18.0462 0.0275879 14.6808 0.0275879C11.3154 0.0275879 8.58716 2.79888 8.58716 6.21744C8.58716 9.63601 11.3154 12.4073 14.6808 12.4073Z" fill="#DB5631"/>
<path d="M60.4234 12.4073C63.7888 12.4073 66.517 9.63601 66.517 6.21744C66.517 2.79888 63.7888 0.0275879 60.4234 0.0275879C57.058 0.0275879 54.3298 2.79888 54.3298 6.21744C54.3298 9.63601 57.058 12.4073 60.4234 12.4073Z" fill="#148CB1"/>
<path d="M84.3218 36.0048C78.6216 36.0048 73.9834 31.2934 73.9834 25.5031V19.977C73.9834 14.1868 78.6216 9.47534 84.3218 9.47534C90.022 9.47534 94.6602 14.1868 94.6602 19.977V25.5031C94.6602 31.2934 90.022 36.0048 84.3218 36.0048ZM84.3218 15.3316C81.786 15.3316 79.727 17.4232 79.727 19.9991V25.5251C79.727 28.101 81.786 30.1925 84.3218 30.1925C86.8577 30.1925 88.9167 28.101 88.9167 25.5251V19.9991C88.9167 17.4232 86.8577 15.3316 84.3218 15.3316Z" fill="#544D46"/>
<path d="M155.112 10.0256C154.115 10.0256 153.248 10.532 152.728 11.3246C150.951 10.1577 148.87 9.58532 146.725 9.65137C141.349 9.89355 136.95 14.7591 136.95 20.5053V24.9746C136.95 30.7208 141.328 35.5864 146.725 35.8286C146.876 35.8286 147.028 35.8286 147.201 35.8286C149.109 35.8286 150.929 35.2782 152.512 34.2874C152.967 35.3002 153.964 35.9827 155.112 35.9827C156.695 35.9827 157.973 34.6837 157.973 33.0766V12.9318C157.973 11.3246 156.695 10.0256 155.112 10.0256ZM151.666 25.481C151.666 26.7359 151.168 27.9028 150.279 28.7834C149.39 29.642 148.22 30.1044 146.963 30.0383C144.601 29.9283 142.672 27.6606 142.672 24.9966V20.5274C142.672 17.8634 144.601 15.5957 146.963 15.4857C147.028 15.4857 147.093 15.4857 147.158 15.4857C148.328 15.4857 149.412 15.926 150.257 16.7406C151.146 17.5992 151.645 18.7881 151.645 20.043V25.481H151.666Z" fill="#544D46"/>
<path d="M113.365 10.9505C111.501 10.8845 109.658 11.3248 108.033 12.1614C107.686 10.9505 106.602 10.0479 105.28 10.0479C103.698 10.0479 102.419 11.3468 102.419 12.954V33.1208C102.419 34.728 103.698 36.0269 105.28 36.0269C106.863 36.0269 108.141 34.728 108.141 33.1208V20.3294C108.141 19.9111 108.423 19.1185 109.225 18.3259C110.244 17.3132 111.631 16.7408 113.04 16.7408C113.126 16.7408 113.191 16.7408 113.278 16.7408C114.817 16.7408 116.096 15.4858 116.139 13.9227C116.182 12.3155 114.947 10.9725 113.365 10.9285V10.9505Z" fill="#544D46"/>
<path d="M125.936 36.0268C124.353 36.0268 123.075 34.7278 123.075 33.1206V18.9642C123.075 17.3571 124.353 16.0581 125.936 16.0581C127.518 16.0581 128.797 17.3571 128.797 18.9642V33.1206C128.797 34.7278 127.518 36.0268 125.936 36.0268Z" fill="#544D46"/>
<path d="M125.936 13.8344C127.611 13.8344 128.97 12.4545 128.97 10.7522C128.97 9.0499 127.611 7.66992 125.936 7.66992C124.26 7.66992 122.901 9.0499 122.901 10.7522C122.901 12.4545 124.26 13.8344 125.936 13.8344Z" fill="#544D46"/>
<path d="M168.966 36.0268C167.383 36.0268 166.105 34.7278 166.105 33.1206V18.9642C166.105 17.3571 167.383 16.0581 168.966 16.0581C170.548 16.0581 171.827 17.3571 171.827 18.9642V33.1206C171.827 34.7278 170.548 36.0268 168.966 36.0268Z" fill="#544D46"/>
<path d="M168.966 13.8344C170.641 13.8344 172 12.4545 172 10.7522C172 9.0499 170.641 7.66992 168.966 7.66992C167.29 7.66992 165.931 9.0499 165.931 10.7522C165.931 12.4545 167.29 13.8344 168.966 13.8344Z" fill="#544D46"/>
</svg>
