<svg width="103" height="28" viewBox="0 0 103 28" fill="none" xmlns="http://www.w3.org/2000/svg">
<path d="M20.809 19.4444C11.9506 19.4444 4.74585 12.2396 4.74585 3.38117C4.74585 1.51679 6.26264 0 8.12702 0C9.99141 0 11.5082 1.51679 11.5082 3.38117C11.5082 8.51086 15.6794 12.682 20.809 12.682C25.9387 12.682 30.1099 8.51086 30.1099 3.38117C30.1099 1.51679 31.6267 0 33.4911 0C35.3555 0 36.8722 1.51679 36.8722 3.38117C36.8722 12.2396 29.6675 19.4444 20.809 19.4444Z" fill="#FF8560"/>
<path d="M12.9724 27.2811C9.08562 27.2811 5.21992 26.3226 1.79661 24.5109C0.142895 23.6366 -0.478567 21.5932 0.395692 19.9394C1.26995 18.2857 3.3134 17.6537 4.96712 18.5385C7.41083 19.8341 10.1811 20.5188 12.9724 20.5188C22.4207 20.5188 30.11 12.8295 30.11 3.38117C30.11 1.51679 31.6268 0 33.4912 0C35.3555 0 36.8723 1.51679 36.8723 3.38117C36.8723 16.5583 26.1495 27.2811 12.9724 27.2811Z" fill="#33C1ED"/>
<path d="M8.13764 6.76234C10.005 6.76234 11.5188 5.24854 11.5188 3.38117C11.5188 1.5138 10.005 0 8.13764 0C6.27027 0 4.75647 1.5138 4.75647 3.38117C4.75647 5.24854 6.27027 6.76234 8.13764 6.76234Z" fill="#DB5631"/>
<path d="M33.491 6.76234C35.3584 6.76234 36.8722 5.24854 36.8722 3.38117C36.8722 1.5138 35.3584 0 33.491 0C31.6237 0 30.1099 1.5138 30.1099 3.38117C30.1099 5.24854 31.6237 6.76234 33.491 6.76234Z" fill="#148CB1"/>
<path d="M48.7223 18.1804C45.2358 18.1804 42.3918 15.3469 42.3918 11.8499V8.5214C42.3918 5.03489 45.2253 2.19092 48.7223 2.19092C52.2194 2.19092 55.0528 5.02436 55.0528 8.5214V11.8499C55.0528 15.3364 52.2194 18.1804 48.7223 18.1804ZM48.7223 5.70902C47.1739 5.70902 45.91 6.97301 45.91 8.5214V11.8499C45.91 13.3983 47.1739 14.6623 48.7223 14.6623C50.2707 14.6623 51.5347 13.3983 51.5347 11.8499V8.5214C51.5347 6.97301 50.2707 5.70902 48.7223 5.70902Z" fill="#544D46"/>
<path d="M92.6565 3.25473C92.0456 3.25473 91.5084 3.57073 91.1924 4.03419C90.1074 3.32846 88.8329 2.98086 87.5163 3.03353C84.2194 3.181 81.5334 6.11977 81.5334 9.58521V11.5444C81.5334 15.0098 84.2194 17.9486 87.5163 18.0961C87.6111 18.0961 87.7059 18.0961 87.8007 18.0961C88.9699 18.0961 90.0864 17.7695 91.0554 17.1691C91.3293 17.7695 91.9402 18.1909 92.646 18.1909C93.615 18.1909 94.405 17.4009 94.405 16.4318V5.00325C94.405 4.03419 93.615 3.24419 92.646 3.24419L92.6565 3.25473ZM90.5498 11.8288C90.5498 12.5872 90.2444 13.2929 89.6967 13.8196C89.1489 14.3462 88.4327 14.6201 87.6743 14.578C86.2312 14.5148 85.0515 13.156 85.0515 11.5339V9.57468C85.0515 7.96309 86.2312 6.59377 87.6743 6.53057C87.7164 6.53057 87.7585 6.53057 87.8007 6.53057C88.5169 6.53057 89.1805 6.80443 89.7072 7.28896C90.2549 7.81562 90.5604 8.52135 90.5604 9.27975V11.8183L90.5498 11.8288Z" fill="#544D46"/>
<path d="M66.6605 3.06531C65.5124 3.02317 64.3958 3.2865 63.3952 3.7921C63.1845 3.05477 62.5104 2.51758 61.7099 2.51758C60.7408 2.51758 59.9508 3.30757 59.9508 4.27663V16.4425C59.9508 17.4116 60.7408 18.2016 61.7099 18.2016C62.6789 18.2016 63.4689 17.4116 63.4689 16.4425V8.73219C63.4689 8.47939 63.648 8.0054 64.1325 7.5314C64.754 6.92048 65.5966 6.58341 66.4604 6.58341C66.513 6.58341 66.5551 6.58341 66.6078 6.58341C67.5558 6.58341 68.3353 5.82502 68.3669 4.87703C68.3985 3.90797 67.6295 3.09691 66.6605 3.06531Z" fill="#544D46"/>
<path d="M74.8447 18.1908C73.8756 18.1908 73.0856 17.4008 73.0856 16.4317V8.00515C73.0856 7.03609 73.8756 6.24609 74.8447 6.24609C75.8137 6.24609 76.6037 7.03609 76.6037 8.00515V16.4317C76.6037 17.4008 75.8137 18.1908 74.8447 18.1908Z" fill="#544D46"/>
<path d="M74.8447 5.11912C75.8918 5.11912 76.7407 4.27026 76.7407 3.22313C76.7407 2.17601 75.8918 1.32715 74.8447 1.32715C73.7976 1.32715 72.9487 2.17601 72.9487 3.22313C72.9487 4.27026 73.7976 5.11912 74.8447 5.11912Z" fill="#544D46"/>
<path d="M101.104 18.1908C100.135 18.1908 99.3452 17.4008 99.3452 16.4317V8.00515C99.3452 7.03609 100.135 6.24609 101.104 6.24609C102.073 6.24609 102.863 7.03609 102.863 8.00515V16.4317C102.863 17.4008 102.073 18.1908 101.104 18.1908Z" fill="#544D46"/>
<path d="M101.104 5.11912C102.151 5.11912 103 4.27026 103 3.22313C103 2.17601 102.151 1.32715 101.104 1.32715C100.057 1.32715 99.2081 2.17601 99.2081 3.22313C99.2081 4.27026 100.057 5.11912 101.104 5.11912Z" fill="#544D46"/>
</svg>
