<svg width="67" height="51" viewBox="0 0 67 51" fill="none" xmlns="http://www.w3.org/2000/svg">
<path d="M37.5386 35.6536C21.5598 35.6536 8.56006 22.4486 8.56006 6.21744C8.56006 2.80614 11.2954 0.0275879 14.6537 0.0275879C18.0119 0.0275879 20.7473 2.80614 20.7473 6.21744C20.7473 15.626 28.2763 23.2464 37.5115 23.2464C46.7467 23.2464 54.2757 15.5985 54.2757 6.21744C54.2757 2.80614 57.011 0.0275879 60.3693 0.0275879C63.7275 0.0275879 66.4629 2.80614 66.4629 6.21744C66.4629 22.4486 53.4632 35.6536 37.4844 35.6536H37.5386Z" fill="#FF8560"/>
<path d="M23.4014 50.014C16.3869 50.014 9.39961 48.2534 3.25183 44.9521C0.272735 43.3565 -0.864739 39.5876 0.706058 36.5614C2.27685 33.5353 5.9601 32.3798 8.96628 33.9754C13.3808 36.3413 18.364 37.6068 23.4014 37.6068C40.4364 37.6068 54.3298 23.5214 54.3298 6.18985C54.3298 2.77856 57.0652 0 60.4234 0C63.7817 0 66.517 2.77856 66.517 6.18985C66.517 30.344 47.18 49.9865 23.4014 49.9865V50.014Z" fill="#33C1ED"/>
<path d="M14.6808 12.4073C18.0462 12.4073 20.7744 9.63601 20.7744 6.21744C20.7744 2.79888 18.0462 0.0275879 14.6808 0.0275879C11.3154 0.0275879 8.58716 2.79888 8.58716 6.21744C8.58716 9.63601 11.3154 12.4073 14.6808 12.4073Z" fill="#DB5631"/>
<path d="M60.4234 12.4073C63.7888 12.4073 66.517 9.63601 66.517 6.21744C66.517 2.79888 63.7888 0.0275879 60.4234 0.0275879C57.058 0.0275879 54.3298 2.79888 54.3298 6.21744C54.3298 9.63601 57.058 12.4073 60.4234 12.4073Z" fill="#148CB1"/>
</svg>
