<svg width="732" height="900" viewBox="0 0 732 900" fill="none" xmlns="http://www.w3.org/2000/svg">
<g clip-path="url(#clip0_4729_4451)">
<path d="M409 632.963C229.77 632.963 84 487.255 84 308.103C84 270.398 114.689 239.723 152.41 239.723C190.131 239.723 220.82 270.398 220.82 308.103C220.82 411.845 305.213 496.202 409 496.202C512.787 496.202 597.18 411.845 597.18 308.103C597.18 270.398 627.869 239.723 665.59 239.723C703.312 239.723 734 270.398 734 308.103C734 487.255 588.23 632.963 409 632.963Z" fill="#FF9778"/>
<path d="M291.517 435.749H288.429C279.908 435.749 273 442.657 273 451.179V454.222C273 461.063 278.545 466.608 285.385 466.608H287.797C286.198 468.79 285.336 471.424 285.336 474.13V474.146C285.336 481.211 291.062 486.938 298.127 486.938H344.7C349.26 493.803 357.06 498.33 365.92 498.33C366.138 498.33 366.352 498.32 366.568 498.314V498.33H425.575H450.645H544.989V512.016C544.989 514.731 542.649 516.886 539.951 516.588C539.242 516.509 538.522 516.469 537.79 516.469C528.794 516.469 521.179 522.381 518.618 530.531C517.679 533.516 519.869 536.563 522.997 536.563H565.458C566.679 536.563 567.849 536.078 568.712 535.216C569.575 534.353 570.06 533.182 570.06 531.962V497.674L574.013 497.59L575.492 497.564L576.576 497.52L579.57 497.379C580.835 497.319 581.803 497.224 582.894 497.135C583.966 497.049 585.048 496.916 586.144 496.799C588.332 496.535 590.566 496.207 592.829 495.771C597.358 494.916 602.03 493.766 606.74 492.205C611.589 490.591 616.319 488.641 620.895 486.367C630.268 481.662 639.422 475.346 647.481 467.447C655.592 459.609 662.549 450.166 667.871 439.771C673.119 429.342 676.733 417.942 678.159 406.372C678.897 400.597 679.16 394.799 678.905 389.095C678.881 388.382 678.825 387.671 678.784 386.961L678.75 386.429L678.733 386.163L678.724 386.03C678.724 386.043 678.714 385.364 678.712 385.607L678.621 384.793L678.175 380.613C677.814 377.823 677.343 375.049 676.763 372.297C674.471 361.342 670.277 351.091 664.799 342.268C659.332 333.419 652.632 325.98 645.517 320.124C638.944 314.677 631.597 310.237 623.719 306.949C616.512 303.982 609.653 302.312 603.589 301.519C598.426 300.831 593.204 300.692 588.012 301.105C583.762 301.463 580.521 302.095 578.342 302.609C577.513 302.796 576.69 303.009 575.874 303.247L575.035 303.484C574.335 303.682 573.717 304.098 573.27 304.672C572.823 305.245 572.57 305.947 572.549 306.674C572.528 307.401 572.739 308.115 573.152 308.714C573.565 309.312 574.159 309.764 574.846 310.002L575.034 310.065L578.011 311.076C580.722 312.021 583.393 313.079 586.016 314.247C589.332 315.752 593.196 317.719 597.229 320.335C599.236 321.663 601.309 323.085 603.347 324.74C605.397 326.364 607.45 328.137 609.423 330.113C613.411 333.996 617.132 338.599 620.299 343.696C623.45 348.809 626.009 354.45 627.734 360.345C629.47 366.239 630.324 372.39 630.314 378.502C630.301 380.032 630.23 381.562 630.099 383.086L629.976 383.992L629.948 384.215L629.914 384.598L629.844 385.414L629.774 386.229C629.772 386.54 629.766 385.922 629.762 386.009L629.751 386.08L629.728 386.222L629.684 386.505C629.621 386.883 629.576 387.262 629.503 387.636C628.977 390.636 628.297 393.563 627.329 396.366C625.406 401.966 622.697 407.131 619.305 411.589C615.98 416.088 611.997 419.859 607.842 422.899C603.653 425.908 599.286 428.197 594.989 429.73C592.85 430.516 590.734 431.138 588.662 431.582C586.678 432.039 584.667 432.37 582.641 432.573C581.689 432.664 580.735 432.738 579.781 432.795C579.311 432.806 578.852 432.845 578.393 432.846C577.955 432.848 577.414 432.872 577.184 432.851L569.889 432.703C567.168 432.645 564.446 432.603 561.724 432.577L551.691 424.925L542.349 432.051H541.119L531.777 424.925L522.434 432.051H521.205L511.862 424.925L502.52 432.051H501.29L491.948 424.925L482.605 432.051H481.376L472.033 424.925L462.691 432.051H461.461L452.119 424.925L442.777 432.051H441.547L432.205 424.925L422.862 432.051H421.633L412.29 424.925L402.948 432.051H394.379C392.648 417.536 380.639 405.982 365.93 404.967C347.898 403.723 332.883 417.983 332.883 435.749H314.016C313.54 429.949 308.69 425.387 302.767 425.387C296.843 425.387 291.993 429.948 291.517 435.749Z" fill="#0D9488"/>
<path d="M442.016 516.973L433.181 484L408.965 490.488L412.611 504.096C413.202 506.301 411.843 508.502 409.637 509.088L409.595 509.099C400.595 511.511 394.666 519.665 394.697 528.564C394.705 531.253 397.264 533.206 399.861 532.51L439.12 521.991C440.169 521.709 441.063 521.023 441.606 520.082C442.149 519.141 442.297 518.023 442.016 516.973Z" fill="#0D9488"/>
<path d="M352.64 335.196V338.439L340.239 356.565H352.766V361.431H332.333V358.098L344.851 340.079H332.244V335.196H352.64Z" fill="#3E3A39"/>
<path d="M337.564 374.081V376.13L329.732 387.577H337.645V390.65H324.739V388.545L332.646 377.165H324.683V374.081H337.564Z" fill="#3E3A39"/>
<path d="M353.399 426.636C353.384 432.491 358.189 437.327 364.044 437.342C369.898 437.357 374.735 432.552 374.75 426.697C373.621 426.844 372.491 426.984 371.361 427.13C371.355 427.567 371.294 430.161 369.187 432.045C367.206 433.82 364.83 433.685 364.049 433.643C363.028 433.584 360.181 433.219 358.429 430.751C357.282 429.131 357.182 427.425 357.185 426.718C355.919 426.691 354.659 426.664 353.399 426.636Z" fill="#2F2B27"/>
<path d="M353.93 466.564C353.93 468.417 354.666 470.194 355.976 471.504C357.286 472.814 359.063 473.55 360.915 473.55C362.768 473.55 364.545 472.814 365.855 471.504C367.165 470.194 367.901 468.417 367.901 466.564M353.93 466.564C353.93 468.417 353.194 470.194 351.884 471.504C350.574 472.814 348.797 473.55 346.944 473.55C345.092 473.55 343.315 472.814 342.005 471.504C340.695 470.194 339.959 468.417 339.959 466.564M339.959 466.564C339.959 468.417 339.223 470.194 337.913 471.504C336.603 472.814 334.826 473.55 332.973 473.55C331.121 473.55 329.344 472.814 328.034 471.504C326.724 470.194 325.988 468.417 325.988 466.564M325.988 466.564C325.988 468.417 325.252 470.194 323.942 471.504C322.632 472.814 320.855 473.55 319.003 473.55C317.15 473.55 315.373 472.814 314.063 471.504C312.753 470.194 312.017 468.417 312.017 466.564M312.017 466.564C312.017 468.417 311.281 470.194 309.971 471.504C308.661 472.814 306.884 473.55 305.032 473.55C303.179 473.55 301.402 472.814 300.092 471.504C298.782 470.194 298.046 468.417 298.046 466.564M298.045 466.564C298.045 468.417 297.309 470.194 295.999 471.504C294.689 472.814 292.912 473.55 291.06 473.55C289.207 473.55 287.43 472.814 286.12 471.504C284.81 470.194 284.074 468.417 284.074 466.564" fill="#ECFDF5"/>
<path d="M297 437.099H297.055C297.3 434.247 299.661 432.004 302.569 432.004C305.486 432.004 307.847 434.248 308.096 437.099H308.162" fill="#2F2B27"/>
<path d="M152.41 376.483C190.192 376.483 220.82 345.868 220.82 308.103C220.82 270.338 190.192 239.723 152.41 239.723C114.628 239.723 84 270.338 84 308.103C84 345.868 114.628 376.483 152.41 376.483Z" fill="#FF8560"/>
<path d="M-312.665 1135.29C-475.078 1106.65 -629.548 1038.11 -759.246 937.186C-821.907 888.469 -832.82 798.502 -784.103 735.841C-735.386 673.18 -645.342 661.828 -582.759 710.984C-490.191 783.127 -379.478 832.148 -262.84 852.714C131.969 922.33 509.929 657.68 579.544 262.871C593.281 184.965 667.838 132.76 745.743 146.497C823.649 160.234 875.854 234.79 862.117 312.696C765.028 863.316 237.955 1232.38 -312.665 1135.29Z" fill="#58D0F0"/>
<path d="M408.718 892.193C392.639 973.746 371.118 1034.06 226.765 1005.6C82.4124 977.136 77.5193 911.617 93.598 830.065C109.677 748.513 192.012 696.065 277.5 712.919C362.988 729.774 424.797 810.641 408.718 892.193Z" fill="#FEFCF8"/>
<path d="M187.669 752.185C137.484 790.216 112.165 809.214 101.27 807.923C51.255 802.009 41.063 680.541 43.9994 650.094C45.5766 633.796 52.5149 627.184 54.2191 625.654C63.5164 617.373 102.757 631.782 108.19 632.182C155.993 651.643 230.203 678.779 218.489 723.036C216.965 728.82 213.983 732.232 187.676 752.166L187.669 752.185Z" fill="#FF8560"/>
<path d="M170.12 755.164C137.527 775.701 121.104 785.932 114.144 784.611C82.1254 778.518 76.8403 704.415 79.0319 686.14C80.2185 676.333 84.7202 672.678 85.8349 671.85C91.8897 667.305 100.228 668.557 103.702 669.078C130.733 673.137 198.166 712.85 190.172 739.074C189.141 742.501 187.192 744.426 170.111 755.182L170.12 755.164Z" fill="#FEFCF8"/>
<path d="M349 791.039C385.771 847.968 404.392 876.497 415.886 879.199C468.65 891.615 523.642 772.504 531.872 740.628C536.273 723.562 531.687 714.322 530.526 712.148C524.168 700.351 479.177 700.491 473.534 698.897C418.025 700.996 332.982 701.145 328.549 750.218C327.963 756.63 329.723 761.178 348.999 791.017L349 791.039Z" fill="#FF8560"/>
<path d="M365.654 800.508C391.066 833.27 403.913 849.66 411.439 850.884C446.067 856.499 478.672 783.49 483.178 764.2C485.585 753.844 482.376 748.491 481.553 747.244C477.101 740.418 468.207 738.617 464.501 737.867C435.667 732.029 352.852 747.391 351.291 776.857C351.073 780.702 352.336 783.367 365.656 800.529L365.654 800.508Z" fill="#FEFCF8"/>
<path d="M133.797 750.646C79.4742 804.948 75.3414 883.652 90.8351 900.739C120.491 941.666 240.819 850.327 262.579 791.472C262.579 791.472 303.704 781.339 313.557 731.362C297.687 697.363 188.12 696.345 133.797 750.646Z" fill="#FF8560"/>
<path d="M396.365 802.414C426.012 873.27 404.724 948.591 383.904 958.519C340.933 985.127 259.517 854.013 261.724 791.304C261.724 791.304 227.523 766.319 237.377 716.343C264.963 690.912 366.718 731.557 396.365 802.414Z" fill="#FF8560"/>
<rect x="214.75" y="871.148" width="64.7919" height="40.4949" rx="4.62329" transform="rotate(11.1532 214.75 871.148)" fill="#3E3A39"/>
<circle cx="169.079" cy="841.37" r="23.5" transform="rotate(11.1532 169.079 841.37)" fill="#3E3A39"/>
<circle cx="333.602" cy="866.601" r="23.5" transform="rotate(11.1532 333.602 866.601)" fill="#3E3A39"/>
<path d="M162.934 896.704C162.934 896.704 148.864 926.2 179.14 937.576C209.416 948.953 238.359 930.263 238.359 930.263C238.359 930.263 253.115 960.764 288.117 962.126C323.119 963.488 321.071 932.009 321.071 932.009" stroke="#F4F0E8" stroke-width="3.08219"/>
<path d="M695.914 429.069C773.944 442.828 848.354 390.725 862.113 312.695C875.871 234.665 823.769 160.255 745.739 146.497C667.709 132.738 593.299 184.84 579.54 262.87C565.781 340.9 617.884 415.31 695.914 429.069Z" fill="#33C1ED"/>
</g>
<defs>
<clipPath id="clip0_4729_4451">
<rect width="732" height="900" fill="white"/>
</clipPath>
</defs>
</svg>
