<svg width="57" height="57" viewBox="0 0 57 57" fill="none" xmlns="http://www.w3.org/2000/svg">
<mask id="mask0_37_343" style="mask-type:alpha" maskUnits="userSpaceOnUse" x="0" y="0" width="57" height="57">
<path d="M57 28.5C57 44.2401 44.2401 57 28.5 57C12.7599 57 0 44.2401 0 28.5C0 12.7599 12.7599 0 28.5 0C44.2401 0 57 12.7599 57 28.5Z" fill="#D9D9D9"/>
</mask>
<g mask="url(#mask0_37_343)">
<path d="M43.1249 31.2507C43.1249 38.9722 42.2472 44.8555 28.5797 44.8555C14.9123 44.8555 13.2891 38.9722 13.2891 31.2507C13.2891 23.5293 19.8506 17.2698 27.9446 17.2698C36.0387 17.2698 43.1249 23.5293 43.1249 31.2507Z" fill="#FEFCF8"/>
<path d="M20.4627 22.463C16.5723 26.8309 14.6061 29.0172 13.59 29.0954C8.92544 29.455 5.81396 18.5678 5.53449 15.7402C5.38537 14.2264 5.8989 13.4991 6.02674 13.3291C6.72527 12.4073 10.5605 13.0154 11.0629 12.9542C15.7692 13.869 23.0202 15.0086 22.7478 19.2526C22.7128 19.8072 22.5024 20.1717 20.4631 22.4612L20.4627 22.463Z" fill="#FF8560"/>
<path d="M18.9168 23.0474C16.3154 25.5048 15.0025 26.7324 14.3444 26.7371C11.3168 26.757 9.50359 20.0984 9.37496 18.3935C9.30689 17.4783 9.6515 17.0644 9.73821 16.9689C10.2084 16.4458 10.9908 16.4101 11.3168 16.3952C13.8533 16.2794 20.7126 18.6871 20.4552 21.2207C20.4229 21.5516 20.2798 21.7621 18.9164 23.0493L18.9168 23.0474Z" fill="#FEFCF8"/>
<path d="M35.8651 23.1058C40.2392 27.6335 42.4489 29.899 43.5451 29.9387C48.577 30.1222 51.4486 18.2784 51.6259 15.2254C51.7203 13.591 51.1363 12.8313 50.9914 12.654C50.2001 11.6931 46.1021 12.5143 45.5592 12.4704C40.5379 13.6592 32.7899 15.2008 33.2677 19.7529C33.3295 20.3478 33.5717 20.7307 35.8646 23.1038L35.8651 23.1058Z" fill="#FF8560"/>
<path d="M37.5523 23.6704C40.457 26.1997 41.9224 27.4626 42.6303 27.439C45.8871 27.3285 47.5468 20.0887 47.6108 18.2497C47.6441 17.2626 47.2555 16.8324 47.1581 16.7335C46.6297 16.1915 45.7867 16.1872 45.4355 16.1854C42.7027 16.1714 35.4311 19.0595 35.8182 21.773C35.8675 22.1274 36.0305 22.3476 37.5529 23.6724L37.5523 23.6704Z" fill="#FEFCF8"/>
<path d="M15.5258 23.2906C11.5507 29.2157 12.5882 36.4629 14.3073 37.7418C17.7455 40.9389 27.0708 30.4523 27.9964 24.6974C27.9964 24.6974 31.5624 23.0349 31.5624 18.3031C29.5051 15.4896 19.501 17.3656 15.5258 23.2906Z" fill="#FF8560"/>
<path d="M40.386 23.2906C44.3612 29.2157 43.7745 36.4628 42.0554 37.7417C38.6172 40.9389 28.8411 30.4523 27.9154 24.6974C27.9154 24.6974 24.3495 23.0349 24.3495 18.3031C26.4068 15.4896 36.4109 17.3656 40.386 23.2906Z" fill="#FF8560"/>
<rect x="25.0685" y="32.8176" width="6.0187" height="3.76169" rx="0.752337" fill="#3E3A39"/>
<path d="M16.0408 39.0896C16.0408 39.0896 10.3687 53.3109 13.8959 60.2588C15.3266 63.0772 19.3811 66.3177 19.3811 66.3177C19.3811 66.3177 32.1682 70.5079 37.8061 66.3177C39.7446 64.8769 42.1448 63.9468 43.1047 60.2588C45.2255 52.1108 40.1968 39.8419 40.1968 39.8419L16.0408 39.0896Z" fill="#FEFCF8"/>
<path d="M17.2942 42.3486C15.8013 41.6021 15.288 40.0916 15.288 40.0916C15.288 40.0916 13.5089 41.9091 12.6548 43.3517C11.8008 44.7942 10.774 48.2419 10.774 48.2419C10.774 48.2419 11.3771 49.2762 13.6051 49.2451C15.963 49.2121 18.0466 49.7466 19.5513 47.8658C20.9672 46.0958 20.8052 43.3517 20.8052 43.3517C20.8052 43.3517 19.3005 43.3517 17.2942 42.3486Z" fill="#FF8560"/>
<path d="M13.9707 48.8689C13.0116 48.5907 10.7892 48.1165 10.7892 48.1165C10.7892 48.1165 9.68454 54.0256 10.1257 56.525C10.6388 59.4325 13.6094 62.411 13.6094 62.411C13.6094 62.411 16.0888 58.2904 16.7612 55.544C17.2382 53.5961 17.9198 49.1197 17.9198 49.1197C17.9198 49.1197 15.4527 49.2987 13.9707 48.8689Z" fill="#FF8560"/>
<path d="M38.8616 43.1003C40.1155 42.4734 40.7424 41.2195 40.7424 41.2195C40.7424 41.2195 42.1038 41.721 43.6264 43.8527C44.4126 44.9534 45.5072 48.8476 45.5072 48.8476C45.5072 48.8476 44.2732 50.4058 42.3396 50.3724C40.2934 50.3371 38.6862 50.0318 37.3014 48.8476C35.6834 47.4641 36.103 43.8527 36.103 43.8527C36.103 43.8527 37.1325 43.9648 38.8616 43.1003Z" fill="#FF8560"/>
<path d="M42.1703 49.3698C43.1557 49.0917 45.439 48.6175 45.439 48.6175C45.439 48.6175 47.2143 56.0238 46.7611 58.5232C46.2339 61.4306 44.0299 63.4134 44.0299 63.4134C44.0299 63.4134 39.9287 58.3856 39.2377 55.6392C38.7477 53.6913 38.1092 49.3698 38.1092 49.3698C38.1092 49.3698 40.6477 49.7996 42.1703 49.3698Z" fill="#FF8560"/>
<path d="M23.4262 41.2211C22.3926 40.3427 20.9311 38.338 20.9311 38.338C20.9311 38.338 22.4358 39.8427 24.3166 39.7173C25.8506 39.6151 28.2037 38.2126 28.2037 38.2126C28.2037 38.2126 30.2429 39.5389 31.213 39.8427C33.2149 40.4697 35.6017 38.7142 35.6017 38.7142C35.6017 38.7142 33.535 40.9513 32.6505 41.7225C31.4469 42.7718 30.2476 43.5499 28.38 43.6027C26.4014 43.6586 24.7203 42.3208 23.4262 41.2211Z" fill="#DB5631"/>
<path d="M25.3461 39.4558C23.8267 40.0652 23.3288 42.1559 23.3288 42.1559C22.7831 43.506 23.1285 45.1261 23.8961 46.3412C24.6637 47.5563 27.0347 48.3663 28.2629 48.3663C29.491 48.3663 31.442 48.5013 32.6701 46.6112C33.8983 44.7211 33.1023 43.101 32.9582 42.426C32.8142 41.7509 32.4613 40.1999 30.9414 39.5908C30.0413 39.23 28.2629 37.8357 28.2629 37.8357C28.2629 37.8357 26.2461 39.0948 25.3461 39.4558Z" fill="#F87171"/>
<path d="M20.8056 36.0798C20.8056 36.0798 20.0533 39.0209 23.0171 39.5137C25.9808 40.0065 28.2828 37.7831 28.2828 37.7831C28.2828 37.7831 30.1757 40.2978 33.3902 39.7929C36.6047 39.2881 35.8524 36.456 35.8524 36.456" stroke="#F4F0E8" stroke-width="0.501558"/>
<rect x="27.8274" y="39.0906" width="0.501558" height="4.01247" rx="0.250779" fill="#DB5631"/>
<path d="M19 31.5C20.0944 30.1956 20.7476 30.138 22 31.5" stroke="#3E3A39" stroke-width="2" stroke-linecap="round"/>
<path d="M34 31.5C35.0944 30.1956 35.7476 30.138 37 31.5" stroke="#3E3A39" stroke-width="2" stroke-linecap="round"/>
</g>
<g clip-path="url(#clip0_37_343)">
<path d="M25.6907 11.3705L25.065 8.73546L27.401 7.75243L28.0268 10.3875M25.6907 11.3705C25.7705 11.7063 25.5629 12.0433 25.2271 12.123C24.8912 12.2028 24.5543 11.9952 24.4746 11.6593C24.3948 11.3235 24.6024 10.9866 24.9382 10.9068C25.2741 10.8271 25.611 11.0347 25.6907 11.3705ZM28.0268 10.3875C28.1066 10.7233 27.899 11.0602 27.5631 11.14C27.2273 11.2197 26.8904 11.0121 26.8106 10.6763C26.7309 10.3405 26.9385 10.0036 27.2743 9.9238C27.6101 9.84404 27.9471 10.0516 28.0268 10.3875Z" stroke="#3E3A39" stroke-width="0.5" stroke-linecap="round" stroke-linejoin="round"/>
</g>
<g clip-path="url(#clip1_37_343)">
<path d="M48.0016 39.4149C47.8181 39.9358 47.3175 40.2341 46.8834 40.0812C46.4493 39.9283 46.2461 39.382 46.4296 38.8611C46.6131 38.3402 47.1138 38.0419 47.5479 38.1948C47.982 38.3477 48.1851 38.894 48.0016 39.4149ZM48.0016 39.4149L49.3306 35.6421L50.3739 37.0699" stroke="#3E3A39" stroke-width="0.5" stroke-linecap="round" stroke-linejoin="round"/>
</g>
<g clip-path="url(#clip2_37_343)">
<path d="M7.19951 32.7486C7.31483 33.2887 7.04345 33.8045 6.59336 33.9006C6.14327 33.9967 5.68491 33.6367 5.56958 33.0966C5.45426 32.5565 5.72564 32.0408 6.17573 31.9447C6.62582 31.8486 7.08418 32.2085 7.19951 32.7486ZM7.19951 32.7486L6.36426 28.8368" stroke="#3E3A39" stroke-width="0.5" stroke-linecap="round" stroke-linejoin="round"/>
</g>
<defs>
<clipPath id="clip0_37_343">
<rect width="5" height="5" fill="white" transform="translate(23 8.15527) rotate(-13.3594)"/>
</clipPath>
<clipPath id="clip1_37_343">
<rect x="47.1388" y="34.3398" width="5" height="6" transform="rotate(19.4056 47.1388 34.3398)" fill="white"/>
</clipPath>
<clipPath id="clip2_37_343">
<rect width="5" height="6" fill="white" transform="translate(3 29.0439) rotate(-12.0528)"/>
</clipPath>
</defs>
</svg>
